<svg width="103" height="52" viewBox="0 0 103 52" fill="none" xmlns="http://www.w3.org/2000/svg">
<path d="M39.2873 0.621555C38.1231 1.45587 36.0276 3.60957 33.1948 6.86923C30.3038 10.1871 29.974 10.614 28.2859 13.1751C25.1815 17.89 22.892 22.1586 21.4368 25.9809C20.5054 28.4451 20.2338 29.1436 20.0786 29.5704C19.9816 29.7838 19.7681 30.3465 19.5935 30.8316C19.4189 31.3167 19.0696 31.957 18.8368 32.2868C18.1771 33.1405 18.0995 33.5674 18.3905 34.8092L18.6428 35.9151L19.8845 36.4002C21.3592 36.9435 22.3293 36.8658 23.0278 36.1673C23.28 35.9345 23.8427 35.042 24.3084 34.2077C26.4039 30.3271 26.8501 29.5704 27.6456 28.5033C29.3337 26.1749 33.253 22.6048 36.3575 20.5676C37.5604 19.772 38.5888 19.19 38.7828 19.19C38.8216 19.19 38.744 19.5974 38.5888 20.1019C38.2007 21.4019 38.2395 23.4198 38.6858 24.2347C39.2291 25.263 39.9276 25.6899 41.0335 25.6705C42.7216 25.6511 43.4589 25.1466 45.1469 22.8765C46.5827 20.975 48.6006 17.3661 48.6006 16.7452C48.6006 16.59 48.8528 15.8915 49.1633 15.2124C49.7454 13.9512 49.7454 13.9512 49.3379 13.7378C48.4066 13.2333 46.1364 14.1064 45.2051 15.3094C44.8947 15.7169 44.5648 16.0661 44.5066 16.0855C44.4484 16.0855 44.2738 15.8527 44.138 15.5811C43.7887 14.9408 42.9932 14.5333 42.1201 14.5333C41.5574 14.5333 41.344 14.6691 40.7813 15.3482C40.4126 15.8139 39.9858 16.4348 39.85 16.7646C39.6559 17.1721 39.1903 17.5407 38.3171 18.0064C33.0202 20.7228 28.674 23.6526 24.774 27.1063C23.9979 27.8048 23.3188 28.3286 23.2606 28.2704C23.0278 28.0182 25.6472 22.5854 27.1024 20.3153C31.2545 13.8348 36.9784 7.52892 42.4499 3.39614C43.4589 2.62004 43.7693 2.94988 43.1096 4.09464C42.838 4.5409 42.5663 5.22 42.4887 5.56925C42.3529 6.20954 42.3723 6.20954 42.8186 5.97671C43.0514 5.84089 43.3813 5.74387 43.5171 5.76328C43.6529 5.80208 43.8081 5.68567 43.8663 5.51104C43.9439 5.33642 44.1186 5.25881 44.332 5.31701C44.5454 5.39462 44.8947 5.18119 45.3603 4.71553C46.3111 3.74539 46.117 3.27973 44.4484 2.3484C43.9051 2.03795 42.741 1.37826 41.8484 0.893193C40.9753 0.388722 40.238 -0.0187351 40.1992 0.000667601C40.1798 0.000667601 39.7723 0.291708 39.2873 0.621555ZM37.153 6.44237C37.153 6.48118 36.8813 6.75282 36.5321 7.08266L35.9306 7.64534L36.3769 7.00505C36.7649 6.48118 37.153 6.19014 37.153 6.44237ZM35.4067 8.32444C34.9799 8.90652 34.4366 9.39159 34.7276 8.88712C34.9605 8.53787 35.659 7.74235 35.7366 7.74235C35.7948 7.74235 35.6396 7.99459 35.4067 8.32444ZM34.1262 9.72143C33.7575 10.3423 33.0202 11.2348 32.9426 11.1572C32.8844 11.099 33.1366 10.711 33.4859 10.2841C34.0873 9.508 34.4172 9.23636 34.1262 9.72143ZM32.2635 12.011C31.8366 12.593 31.5844 12.8065 31.8366 12.3408C32.0113 12.0304 32.5351 11.4289 32.6321 11.4289C32.6709 11.4289 32.5157 11.6811 32.2635 12.011ZM46.5827 16.5706C46.8155 17.1333 42.7992 22.4884 42.1589 22.4884C41.8872 22.4884 42.0619 19.9661 42.4111 18.8213C42.5857 18.2004 42.8574 17.8706 43.4007 17.5213C43.8081 17.2691 44.138 16.9781 44.138 16.8616C44.138 16.7064 45.3797 16.3378 46.1364 16.299C46.3305 16.2796 46.5245 16.4154 46.5827 16.5706Z" fill="white"/>
<path d="M88.4345 3.37677C87.2703 3.95885 85.6599 5.64688 85.6599 6.24837C85.6599 6.59762 85.7375 6.55881 86.1256 5.97673C86.7077 5.12301 87.5614 4.73496 88.9002 4.75436C89.8315 4.77376 89.9285 4.73496 89.9285 4.36631C89.9091 4.15288 89.8121 3.70661 89.6763 3.41557L89.4434 2.8723L88.4345 3.37677Z" fill="white"/>
<path d="M69.1286 7.91696C68.8764 8.11098 67.654 8.90649 66.3735 9.6826C65.1123 10.4781 64.0451 11.2348 63.9869 11.3512C63.8317 11.7587 64.9182 13.0199 65.3257 12.9229C65.5197 12.8646 65.675 12.8646 65.675 12.9229C65.675 12.9617 65.4227 14.0288 65.1123 15.2706C64.2974 18.472 63.6377 23.0899 63.8511 24.0794C64.1227 25.2824 64.6854 25.3988 65.7332 24.4675C68.4495 22.0227 71.1077 20.8198 79.024 18.4138C80.3046 18.0258 80.421 17.9676 80.0912 17.7153C79.8972 17.5795 79.5673 17.4437 79.3539 17.4437C77.9763 17.4243 68.0809 20.3735 66.1212 21.3824C65.0929 21.9257 65.0153 21.8481 65.1511 20.3929C65.2675 18.8989 65.772 17.5019 66.1988 17.4049C66.354 17.3661 66.8003 16.6094 67.1884 15.6974C68.566 12.5154 69.7107 10.5751 70.5256 9.95424C71.5734 9.17813 71.6316 8.90649 70.9137 8.28561C70.0794 7.60651 69.6525 7.5095 69.1286 7.91696Z" fill="white"/>
<path d="M59.99 11.7587C59.8347 12.0691 59.5631 12.787 59.3691 13.3691C58.884 14.8631 56.4004 19.7138 56.284 19.3646C56.2452 19.2093 56.1482 18.472 56.09 17.7347C56.0124 16.978 55.7796 15.4646 55.5467 14.3781C55.1781 12.6318 55.0617 12.3408 54.6542 12.1855C53.8587 11.8751 52.7721 11.9721 52.4035 12.3796C52.093 12.7094 52.0736 12.9034 52.2871 14.087C52.7139 16.6482 52.8692 17.9482 53.0632 20.1989C53.296 22.9735 53.6453 23.8466 54.8288 24.4481C55.4109 24.7391 55.8184 24.8167 56.284 24.7197C57.293 24.5451 57.5258 24.1764 57.5258 22.8182C57.5258 22.1585 57.6422 21.169 57.7974 20.6451C58.1661 19.2869 60.572 13.2333 61.0183 12.4766C61.581 11.5841 61.5228 11.2348 60.8243 11.2348C60.3974 11.2348 60.184 11.3706 59.99 11.7587Z" fill="white"/>
<path d="M70.5259 13.7378C68.8767 14.7273 68.3916 15.2124 68.3916 15.8333C68.3916 16.2796 68.4498 16.3184 69.0319 16.2214C70.8946 15.8721 73.1647 15.1154 73.4751 14.7273C74.0766 13.99 73.9214 13.4662 73.0677 13.2139C72.0005 12.8841 71.9229 12.9035 70.5259 13.7378Z" fill="white"/>
<path d="M41.053 30.3853C40.859 30.8704 40.8978 31.1227 41.4023 32.3838C42.3918 34.945 42.6828 35.7793 42.6246 36.0121C42.5858 36.1868 42.8187 36.2644 43.3619 36.2644C44.1381 36.2644 44.1381 36.2644 43.8664 35.8181C43.7112 35.5853 43.1873 34.3629 42.7023 33.1211C42.2172 31.8794 41.7127 30.6182 41.5575 30.3271L41.2859 29.8227L41.053 30.3853Z" fill="white"/>
<path d="M49.4541 31.7435C50.2884 32.7913 51.3944 34.2271 51.9376 34.945C52.5003 35.6823 53.0048 36.2644 53.1018 36.2644C53.3929 36.2644 53.2764 34.8674 52.9466 34.6345C52.7914 34.5181 51.8794 33.4122 50.9481 32.1898C49.4541 30.2301 49.1631 29.9585 48.6198 29.9003L47.9795 29.8421L49.4541 31.7435Z" fill="white"/>
<path d="M52.5784 30.1331C52.7725 30.2689 52.9859 30.754 53.0635 31.2391C53.1993 32.0346 53.2187 32.054 53.2381 31.4331C53.2381 31.045 53.4322 30.5794 53.6844 30.3077L54.0919 29.8615H53.1605C52.3068 29.8615 52.2486 29.8809 52.5784 30.1331Z" fill="white"/>
<path d="M58.263 33.0629L58.3213 36.2644H58.7869H59.272V33.0629V29.8615H58.7481H58.2048L58.263 33.0629Z" fill="white"/>
<path d="M60.6691 30.0361C61.0571 30.1137 61.5228 30.2883 61.678 30.4242C62.2019 30.851 62.5705 31.957 62.5705 33.0435C62.5705 34.3629 62.2213 35.2748 61.5034 35.8375C61.0377 36.2062 61.0183 36.2644 61.3482 36.2644C61.8332 36.2644 62.9004 35.5465 63.4049 34.8868C63.9287 34.1689 63.9287 32.2868 63.4243 31.3943C62.9586 30.5988 61.6004 29.8615 60.6303 29.8809L59.9512 29.9003L60.6691 30.0361Z" fill="white"/>
<path d="M48.6394 34.0137C48.6006 35.139 48.5229 35.6435 48.2707 35.9151C47.9797 36.245 47.9991 36.2644 48.6782 36.2644C49.3573 36.2644 49.3767 36.245 49.1438 35.8181C49.008 35.5853 48.8528 34.7316 48.7752 33.936L48.6588 32.4808L48.6394 34.0137Z" fill="white"/>
<path d="M39.5007 34.0719C39.4813 34.1883 39.4231 34.4599 39.3649 34.6539C39.2679 34.9838 39.2679 34.9838 39.4813 34.6539C39.5977 34.4599 39.6559 34.2077 39.5977 34.0719C39.5395 33.8972 39.5007 33.8972 39.5007 34.0719Z" fill="white"/>
<path d="M38.744 35.7017L38.2783 36.2644H38.8798C39.4425 36.2644 39.4813 36.2256 39.3649 35.7211C39.2873 35.4301 39.2291 35.1778 39.2097 35.1778C39.1902 35.1584 38.9962 35.4107 38.744 35.7017Z" fill="white"/>
<path d="M54.8094 43.4628C54.8094 43.618 54.5765 43.6568 54.1303 43.5792L53.4512 43.4628L54.0333 43.9478C54.3437 44.2195 54.6929 44.724 54.79 45.0538C54.9452 45.5971 54.9646 45.5389 54.984 44.4523C55.0034 43.7926 54.9646 43.2493 54.9064 43.2493C54.8482 43.2493 54.8094 43.3464 54.8094 43.4628Z" fill="white"/>
<path d="M0.0744008 43.715C0.229623 43.909 0.287831 45.1896 0.287831 47.9254L0.249025 51.8835H0.908718H1.54901L1.60722 47.6538L1.64602 43.4434H0.753497C-0.00321013 43.4434 -0.100224 43.4822 0.0744008 43.715Z" fill="white"/>
<path d="M3.43105 43.5792C3.89671 43.6374 4.36238 43.8702 4.71163 44.2195C5.64296 45.1508 5.9146 45.9463 5.9146 47.7508C5.9146 49.594 5.48774 50.603 4.42059 51.3209C3.31463 52.0582 4.20716 52.0582 5.73997 51.3209C7.62204 50.4284 8.22353 47.1687 6.88474 45.1508C6.20564 44.1225 5.2161 43.618 3.7803 43.5404C3.19822 43.521 3.04299 43.5404 3.43105 43.5792Z" fill="white"/>
<path d="M13.6758 43.8314C13.831 44.1225 13.8698 45.4807 13.831 48.1194L13.7728 52L14.4519 51.9418L15.131 51.8836V47.712V43.5404L14.2967 43.4822C13.4818 43.424 13.4624 43.4434 13.6758 43.8314Z" fill="white"/>
<path d="M17.1488 43.618C18.0219 43.7344 18.2935 43.8508 18.7592 44.4135L19.3219 45.0926L19.2637 44.3165L19.2054 43.5404L17.6532 43.521C16.2756 43.5016 16.2174 43.5016 17.1488 43.618Z" fill="white"/>
<path d="M25.8994 43.8314C26.0547 44.1225 26.0935 45.4807 26.0547 48.1194L25.9964 52L26.6755 51.9418L27.3546 51.8836V47.712V43.5404L26.5203 43.4822C25.7054 43.424 25.686 43.4434 25.8994 43.8314Z" fill="white"/>
<path d="M29.3726 43.618C30.2457 43.7344 30.4979 43.8508 30.9636 44.4135L31.5263 45.0732V44.2583V43.4434L29.9353 43.4628C28.4218 43.5016 28.383 43.5016 29.3726 43.618Z" fill="white"/>
<path d="M38.1039 43.715C38.2785 43.909 38.3173 45.1314 38.2785 48.003L38.2203 52L38.9576 51.9418L39.7143 51.8836L39.6755 47.8284C39.6755 45.5971 39.6173 43.6956 39.5591 43.5986C39.5009 43.521 39.1128 43.4434 38.6666 43.4434C38.0069 43.4434 37.9099 43.4822 38.1039 43.715Z" fill="white"/>
<path d="M41.8681 43.8703C42.9741 44.9762 42.8577 47.3433 41.6547 48.1C41.4025 48.2747 41.4801 48.2941 42.101 48.2165C43.4786 48.0224 44.2353 46.5672 43.7696 44.9762C43.5174 44.1419 42.9935 43.715 42.0233 43.521L41.3831 43.3852L41.8681 43.8703Z" fill="white"/>
<path d="M50.6185 44.1031C49.4932 45.2284 49.7648 46.2956 51.5499 47.6538C53.7424 49.3418 53.8782 49.497 53.8782 50.2925C53.8782 50.7194 53.7424 51.1851 53.5289 51.4179C53.0245 51.9612 53.3349 52.0776 54.1692 51.6507C54.6737 51.3791 54.9841 51.0493 55.1782 50.5642C55.5662 49.497 55.0618 48.6627 53.2573 47.3627C52.4618 46.8001 51.7051 46.1404 51.5693 45.9075C51.2006 45.2478 51.2588 44.2777 51.7051 43.8314L52.0931 43.4434H51.6857C51.4528 43.4434 50.9872 43.7344 50.6185 44.1031Z" fill="white"/>
<path d="M61.6005 43.812C61.7169 44.0449 61.7945 45.6747 61.7945 47.7896V51.3985H62.3766H62.9587V47.4209V43.4434H62.1826C61.4647 43.4434 61.4064 43.4822 61.6005 43.812Z" fill="white"/>
<path d="M65.0154 43.6374C65.5392 43.8508 66.0631 44.9568 66.0631 45.8299C66.0631 46.703 65.8109 47.3821 65.287 47.906L64.899 48.2941H65.287C66.8974 48.2941 67.8288 46.1404 66.975 44.4717C66.6646 43.8702 65.8109 43.424 65.0154 43.4628H64.6079L65.0154 43.6374Z" fill="white"/>
<path d="M74.6002 44.1225C74.4061 44.724 74.4837 45.0538 75.5703 47.9836C76.23 49.7493 76.7345 51.3403 76.6956 51.5343C76.6568 51.8254 76.7927 51.903 77.4912 51.9418C78.7523 52.0388 78.9464 51.903 78.4225 51.3209C78.1897 51.0687 77.627 49.9045 77.1807 48.7403C76.7345 47.5956 76.0942 45.9269 75.7449 45.0344C75.4151 44.1613 75.0658 43.4434 74.9688 43.4434C74.8912 43.4434 74.7166 43.7538 74.6002 44.1225Z" fill="white"/>
<path d="M89.4433 43.8702C89.7731 44.1419 90.1612 44.6075 90.297 44.8792C90.7045 45.6165 90.8985 45.5 90.8985 44.5105C90.8985 43.6956 90.8597 43.6374 90.3746 43.6374C90.0642 43.6374 89.6179 43.5792 89.3463 43.5016C88.8806 43.3851 88.8806 43.3851 89.4433 43.8702Z" fill="white"/>
<path d="M96.467 47.6538L96.5252 51.8835H97.1461H97.7864L97.8446 47.6538L97.8834 43.4434H97.1655H96.4282L96.467 47.6538Z" fill="white"/>
<path d="M99.63 43.5792C100.775 43.6762 101.376 43.9867 101.687 44.7046L101.939 45.2866L101.958 44.3553V43.4434L100.367 43.4822C99.4747 43.5016 99.1449 43.5404 99.63 43.5792Z" fill="white"/>
<path d="M84.9614 44.2583C83.8166 45.0344 83.3316 45.8299 83.1957 47.1687C83.0599 48.6045 83.4286 49.788 84.2629 50.6418C85.0002 51.3597 86.727 52.1552 86.9793 51.8835C87.0569 51.8059 86.9987 51.6895 86.8629 51.6507C84.7091 50.8746 84.1465 46.1015 85.9703 44.2001C86.727 43.424 86.1644 43.4628 84.9614 44.2583Z" fill="white"/>
<path d="M17.8667 47.2657C17.5369 47.712 17.5369 47.7896 17.7891 47.9836C17.9443 48.1 18.1189 48.3329 18.1965 48.4881C18.2548 48.6433 18.313 48.3135 18.313 47.7508C18.3324 47.2075 18.313 46.7418 18.2936 46.7418C18.2548 46.7418 18.0607 46.9747 17.8667 47.2657Z" fill="white"/>
<path d="M30.071 47.3239C29.7217 47.712 29.7217 47.7314 30.1292 48.1194L30.5561 48.5075V47.712C30.5561 47.2851 30.5173 46.9359 30.4979 46.9359C30.4591 46.9359 30.265 47.1105 30.071 47.3239Z" fill="white"/>
<path d="M100.542 47.3821C100.193 47.7314 100.193 47.7508 100.542 48.003C100.852 48.2359 100.891 48.2165 100.949 47.8866C101.066 47.1881 100.911 46.9941 100.542 47.3821Z" fill="white"/>
<path d="M72.757 48.6821C72.6794 48.9149 72.66 49.1478 72.7182 49.206C72.7764 49.2448 72.8734 49.1089 72.951 48.8761C73.0286 48.6433 73.048 48.4105 72.9898 48.3522C72.9316 48.3134 72.8346 48.4493 72.757 48.6821Z" fill="white"/>
<path d="M72.1171 50.2731C71.9231 50.7388 71.6126 51.2239 71.438 51.3791C70.9335 51.7866 71.0499 51.9806 71.7484 51.9806C72.5634 51.9806 72.6798 51.8642 72.4275 51.3015C72.2917 50.9716 72.2917 50.6612 72.4469 50.2149C72.7768 49.2642 72.544 49.303 72.1171 50.2731Z" fill="white"/>
<path d="M19.089 50.603C18.9144 50.894 18.4875 51.2627 18.1577 51.4179C17.3234 51.7866 17.401 51.9806 18.4293 51.9806C19.4189 51.9806 19.5547 51.8254 19.4577 50.7388L19.3995 50.0403L19.089 50.603Z" fill="white"/>
<path d="M31.2932 50.6224C31.0992 50.9522 30.6918 51.3403 30.3619 51.4761C29.6246 51.7671 29.7992 51.9806 30.7888 51.9806C31.6425 51.9806 31.7783 51.7866 31.6813 50.7388L31.6231 50.0403L31.2932 50.6224Z" fill="white"/>
<path d="M49.7649 50.9134V51.9029L50.5604 51.8253C51.3171 51.7477 51.3365 51.7283 50.9291 51.4567C50.6962 51.282 50.347 50.894 50.1335 50.5447L49.7649 49.9433V50.9134Z" fill="white"/>
<path d="M101.686 50.7388C101.492 51.0104 101.046 51.3597 100.716 51.4955C100.251 51.7089 100.192 51.7866 100.425 51.8836C100.6 51.9418 101.085 51.9806 101.492 51.9418C102.23 51.8836 102.249 51.8642 102.307 51.0492C102.385 50.1179 102.21 50.0403 101.686 50.7388Z" fill="white"/>
<path d="M90.2002 51.3209C89.851 51.5925 89.851 51.6119 90.2778 51.3985C90.5107 51.2821 90.7047 51.1463 90.7047 51.1074C90.7047 50.9522 90.6077 50.991 90.2002 51.3209Z" fill="white"/>
</svg>
